<?xml version="1.0" encoding="UTF-8"?>
<svg enable-background="new 719.9376 -30.2631 1120.1248 1660.5262" version="1.1" viewBox="719.9376 -30.2631 1120.1248 1660.5262" xmlns="http://www.w3.org/2000/svg">
 <path d="m1816.5 1381.1c-1.7128-7.5179-4.0994-14.883-7.1198-21.976-7.6459-17.955-18.324-27.715-32.266-40.588-68.05-63.37-136.23-126.58-205.47-188.66-18.746-17.453-38.628-34.237-61.765-45.582-15.068-7.4225-31.317-11.903-47.031-17.72-16.517-5.9515-31.183-15.848-45.783-25.388-9.0944-6.375-18.634-12.482-25.901-20.952-2.3406-2.3627-1.761-6.152 0.0891-8.537 3.3434-5.5278 8.2249-10.565 9.005-17.252 1.1589-10.298-4.1238-20.239-2.4073-30.537 1.7609-9.8297 7.4448-19.125 5.9067-29.378-0.3119-4.614-3.6777-8.1804-7.1771-10.766-12.527-8.9603-27.951-12.817-40.344-21.978-11.791-9.5398-2.6079-27.929-13.307-38.227-14.756-12.906-35.24-16.316-50.798-27.951-2.4742-8.1135 3.9675-15.469 3.8339-23.449-2.0062-5.0372-7.6677-6.7089-11.88-9.3394 6.9543-17.653 18.946-33.97 35.396-43.844 54.61-35.753 110.65-69.209 166.48-102.98 6.0402-4.0569 13.218-5.8399 19.525-9.3617 4.6364-4.614 5.3943-12.148 11.212-15.781 21.465-16.762 43.442-33.167 67.649-45.716 26.101-12.727 53.629-22.223 81.224-31.072 6.7537-2.452 15.848 1.382 20.573-5.6171 4.6139-5.0373 4.1682-12.527-1.3151-16.806 5.6168-2.5855 12.683-4.9482 14.444-11.658-0.3789-5.9514-5.3942-9.4285-9.9412-12.326 5.8622-0.847 12.973-0.8025 16.695-6.308 4.1681-5.6393 7.2664-14.756 1.4489-20.373-7.6007-8.3364-17.386-14.354-24.875-22.825 3.4771-3.9677 7.3778-7.6676 9.9856-12.282 3.2765-6.5306-1.6049-14.845-8.6484-15.848-8.2472-1.1814-9.094-12.727-17.52-13.753-9.3395 0.7133-17.453 7.4002-27.015 6.2188-0.1785-7.5342 2.2512-15.336 0.1337-22.691-4.547-5.4833-12.727-3.3212-18.924-4.1014 1.1145-4.4802 6.3748-10.588 1.2705-14.265-5.0376-3.611-11.814-4.77-17.653-2.5855-10.365 3.3657-20.596 7.1772-31.05 10.298 6.0182-8.2472 9.9188-18.099 17.966-24.764 11.457-10.365 22.825-24.541 39.609-24.831 8.5146 0.0892 18.5-0.4012 24.808 6.4418 9.8743-2.6302 18.879-7.5562 28.575-10.699 8.1803-2.8085 16.829-4.7254 24.162-9.4954 11.3-7.3333 20.841-17.052 32.32-24.14-3.1429 7.2664-7.7122 14.065-9.2056 21.955 1.7832 5.5946 8.6261 3.7001 12.883 2.8307 15.402-3.923 31.852-11.234 39.542-26.057 6.5309-12.705 9.2723-26.904 14.889-39.988 9.8075-23.605 10.721-49.55 10.922-74.737 0.624-29.913-5.8845-59.825-18.434-86.93-10.008-20.596-24.363-39.497-43.242-52.693-13.797-9.9412-29.333-17.007-44.267-24.987-11.947-6.1073-24.162-11.97-37.134-15.514-10.276-2.9867-20.774 0.7357-31.183-0.0445-14.332-0.9808-28.374-4.6363-42.707-5.4611-3.8116-0.4012-7.1328 1.6495-10.342 3.299-14.043 7.5338-29.289 12.906-42.239 22.334-28.419 20.462-56.905 41.236-88.445 56.727-24.273 12.036-50.954 18.144-77.546 22.423-22.736 3.3212-45.716 5.8399-68.719 5.0821-13.374-0.4459-24.652-8.9382-37.67-10.9-9.473-1.382-18.322 2.9421-26.748 6.5977-13.396 6.0182-28.419 5.3495-42.729 6.6423-19.882 2.1621-40.701 1.2259-59.246 9.9189-30.581 13.864-59.446 31.473-86.261 51.645-33.902 25.343-61.207 58.354-84.745 93.282-43.911 66.624-75.985 140.6-98.587 216.99-10.008 34.259-18.523 69.12-22.58 104.65-3.4771 35.106 1.2705 70.302 7.155 104.9 3.4771 22.2 8.47 44.936 3.6777 67.359-3.3211 21.331-13.886 41.837-11.122 63.838 4.6586 20.417 19.793 35.998 32.744 51.623-4.4134 0.6465-10.699 1.1591-11.279 6.8652-6.3749 24.786-3.4772 50.664-2.5187 75.919 1.4264 31.317 3.6108 62.634 8.4254 93.639 2.4518 14.176 4.9482 28.977 13.062 41.214 12.75 19.637 31.852 33.702 48.257 50.018 3.4771 4.1234 8.9827 8.6038 8.2694 14.444-5.0151 3.2097-11.435 2.4519-17.118 2.541-50.91-2.8085-100.79-14.934-151.59-18.59-11.011-1.9392-19.214 7.7792-22.223 17.252-16.048 53.317-16.405 111.52-0.0668 164.79 2.1399 9.2502 13.285 10.565 17.587 18.032 3.1652 10.922 1.4711 22.49-0.0446 33.568-1.1813 11.434-11.97 19.169-12.504 30.782-0.4904 11.613 1.7386 23.137 3.2766 34.594 3.1652 17.586 5.3049 35.574 11.925 52.314 6.9141 19.573 11.753 43.403 27.77 57.34 27.169 23.641 61.488 38.955 97.229 43.385 27.442 3.402 56.069 1.0262 82.102-8.5663 22.635-8.3401 50.962-25.277 61.224-48.19 1.7133-3.8252 2.8982-7.9178 3.1591-12.101 0.6637-10.639-4.7522-20.934-12.235-28.527-8.8219-8.9513-21.428-16.986-32.36-23.029-7.4383-4.1119-9.8026-10.832-8.8428-17.23-0.0969-1.0112 0.2487-2.1566 0.7967-3.3004 1.3325-3.981 3.9098-7.6151 7.3021-10.13 3.8903-4.9751 8.1187-9.8322 14.626-10.703 7.8237-2.1398 17.966-3.3212 23.248 4.3466 4.7699 3.9006 6.9989 13.106 14.176 12.326 3.0759-4.4135 2.0283-10.097 2.6747-15.09 6.9545 6.9988 12.148 15.87 20.64 21.22 18.53 11.673 40.539 20.486 60.596 29.178 18.427 7.9857 45.313 3.5549 65.566 5.355 38.879 3.4554 77.411 10.82 114.82 21.968 20.065 5.9795 39.897 13.356 58.251 23.514 17.443 9.6533 30.373 27.514 49.2 33.697 10.055 3.302 20.708 4.2292 31.24 5.2722 32.283 3.1973 64.437 7.6884 96.361 13.457 45.006 8.1328 92.473 21.576 136.19 1.3827 20.98-9.6914 39.26-24.385 56.15-40.159 37.946-35.439 76.876-85.309 77.063-139.59 0.0333-9.5987-1.0547-19.192-3.1864-28.549zm-458.94-882.67c2.6748-7.1993 12.282-6.7981 16.316-12.839 3.3435-5.1266 5.2604-10.989 7.5116-16.65 9.8744-27.283 17.497-55.813 17.966-84.99 0.5128-19.816 0.7579-39.943-3.7-59.357-3.0314-12.393-13.909-20.194-21.755-29.445-2.8976-3.4103-0.6909-8.0688 0.847-11.546 8.6038-1.0699 18.055-1.8501 26.079 1.9611-7.9125 15.647-3.4545 33.68 0.7356 49.75 3.8116 13.664 15.736 23.159 28.063 29.021 4.5247 1.8947 9.2947 4.1906 14.332 3.6556 6.6425-2.3404 9.6737-9.4508 15.112-13.508 10.521 3.5664 17.319 13.084 26.97 18.166 5.4608 1.315 9.8074-3.232 14.711-4.8146 1.7386 2.7193 2.6525 8.6706 7.244 7.4224 7.2665-2.6301 14.02-9.2056 22.424-5.929 14.332 1.9615 22.669 14.711 34.571 21.398-8.4923-0.2005-16.896-1.5825-25.366-1.3374-12.527 2.6079-12.192 17.431-17.564 26.458-4.77 10.409-16.205 14.778-23.605 22.691-3.9006 10.186 1.4491 22.223-3.9675 32.298-7.3556 13.441-17.899 24.764-27.305 36.778-4.458 6.219-12.839 6.6424-19.348 9.54-24.831 8.0243-48.68 18.723-71.528 31.317-8.7599 3.7001-18.857 12.973-28.419 7.4001 3.5663-19.058 4.391-38.695 9.6736-57.44z"/>
</svg>
